<svg viewBox="0 0 155 29" version="1.1" xmlns="http://www.w3.org/2000/svg" xmlns:xlink="http://www.w3.org/1999/xlink"><defs><polygon id="path-1" points="154.812616 27.8903526 154.812616 0.184190417 5.53571429e-05 0.184190417 5.53571429e-05 27.8903526"></polygon><polygon id="path-3" points="0 28.0645161 155 28.0645161 155 0 0 0"></polygon></defs><g id="Landing-Basic" stroke="none" stroke-width="1" fill="none" fill-rule="evenodd" transform="translate(-103.000000, -83.000000)"><g id="Marca-Superviz-Copy" transform="translate(103.000000, 83.000000)"><g id="superviz-logo"><g id="Group-3"><mask id="mask-2" fill="white"><use xlink:href="#path-1"></use></mask><g id="Clip-2"></g><path d="M154.812671,0.184135922 L9.7390375,0.184135922 C4.36884107,0.184135922 5.53571429e-05,4.48481867 5.53571429e-05,9.7713016 C5.53571429e-05,15.0577845 4.36884107,19.3587397 9.7390375,19.3587397 L17.2554304,19.3587397 C18.1577518,19.3587397 18.8920643,20.0813329 18.8920643,20.9701334 C18.8920643,21.8581165 18.1577518,22.5807097 17.2554304,22.5807097 L9.70914464,22.5807097 L9.70914464,27.8898077 L17.2554304,27.8898077 C21.1309839,27.8898077 24.2849571,24.7858177 24.2849571,20.9701334 C24.2849571,17.1539042 21.1309839,14.0499142 17.2554304,14.0499142 L9.7390375,14.0499142 C7.34262679,14.0499142 5.39294821,12.1306282 5.39294821,9.7713016 C5.39294821,7.41224742 7.34262679,5.49296148 9.7390375,5.49296148 L145.044627,5.49296148 L130.721796,27.8903526 L148.028377,27.8903526 L148.028377,22.5956956 L140.476002,22.5956956 L154.812671,0.184135922 Z" id="Fill-1" fill="#FCFD3D" mask="url(#mask-2)"></path></g><path d="M37.4232549,8.41935484 L37.4232549,20.2226383 C37.4232549,21.1787012 37.2529587,21.9409368 36.9172242,22.4891666 C36.4908089,23.1848984 35.8044963,23.5233856 34.8199629,23.5233856 C34.3123129,23.5233856 33.5933444,23.4170932 33.0492602,22.9106414 C32.477378,22.3794638 32.1875236,21.4751261 32.1875236,20.2226383 L32.1875236,8.41935484 L26.9161677,8.41935484 L26.9161677,20.1322614 C26.9161677,23.1780775 27.7633306,25.5099728 29.4347164,27.0640012 C30.7984355,28.330415 32.6603587,29 34.8199629,29 C36.3148452,29 38.4579865,28.6637865 40.1774115,27.062296 C41.8479876,25.5068465 42.6946108,23.1746671 42.6946108,20.1322614 L42.6946108,8.41935484 L37.4232549,8.41935484 Z" id="Fill-4" fill="#FCFD3D"></path><mask id="mask-4" fill="white"><use xlink:href="#path-3"></use></mask><g id="Clip-7"></g><polygon id="Fill-6" fill="#FCFD3D" mask="url(#mask-4)" points="122.51497 28.0645161 128.083832 28.0645161 128.083832 8.41935484 122.51497 8.41935484"></polygon><path d="M88.8300915,13.7669822 L92.0007084,13.7669822 C93.0766382,13.7669822 93.781492,13.9626678 94.0962124,14.3493202 C94.3412369,14.6499264 94.4506811,15.1687013 94.4506811,16.02944 C94.4506811,16.9229318 94.3398756,17.4589158 94.0921286,17.7667389 C93.7801308,18.1545015 93.076366,18.3510198 92.0007084,18.3510198 L88.8300915,18.3510198 L88.8300915,13.7669822 Z M88.8300915,28.0645161 L88.8300915,23.6986472 L91.5049422,23.6986472 L93.8694286,28.0645161 L100.239521,28.0645161 L99.8251573,27.3725388 C99.6487397,27.0769288 99.470144,26.780486 99.2920929,26.4832105 L99.2351928,26.3885598 C98.4494809,25.0801037 97.6389943,23.7311226 96.962999,22.5189827 C97.9068878,21.9671772 98.6207258,21.2402263 99.137183,20.3056545 C99.7652624,19.1706784 100.070454,17.7720127 100.070454,16.02944 C100.070454,13.5690762 99.4421024,11.7551685 98.1491898,10.483629 C96.7375764,9.09467808 94.5941566,8.41935484 91.597507,8.41935484 L83.5329341,8.41935484 L83.5329341,28.0645161 L88.8300915,28.0645161 Z" id="Fill-8" fill="#FCFD3D" mask="url(#mask-4)"></path><path d="M54.499735,19.144587 L51.7644654,19.144587 L51.7644654,13.7669822 L54.499735,13.7669822 C56.566994,13.7669822 57.4101168,14.5416749 57.4101168,16.4410735 C57.4101168,18.3615673 56.566994,19.144587 54.499735,19.144587 M61.1292588,10.8719468 C59.6065795,9.24456486 57.3466146,8.41935484 54.4125912,8.41935484 L46.4071856,8.41935484 L46.4071856,28.0645161 L51.7644654,28.0645161 L51.7644654,24.4919369 L54.4125912,24.4919369 C57.3488138,24.4919369 59.6090537,23.6650614 61.1303584,22.0340711 C62.4281682,20.6434549 63.1137725,18.7093602 63.1137725,16.4410735 C63.1137725,14.185555 62.4273435,12.2595098 61.1292588,10.8719468" id="Fill-9" fill="#FCFD3D" mask="url(#mask-4)"></path><polygon id="Fill-10" fill="#FCFD3D" mask="url(#mask-4)" points="78.8922156 28.0645161 78.8922156 22.6432566 71.0730105 22.6432566 71.0730105 20.4823582 76.2651288 20.4823582 76.2651288 15.9826378 71.0730105 15.9826378 71.0730105 13.8567136 78.8922156 13.8567136 78.8922156 8.41935484 65.8982036 8.41935484 65.8982036 28.0645161"></polygon><polygon id="Fill-11" fill="#FCFD3D" mask="url(#mask-4)" points="113.967407 8.41935484 111.010265 17.7602092 107.986372 8.41935484 102.095808 8.41935484 109.100162 28.0645161 112.924781 28.0645161 119.730539 8.41935484"></polygon></g></g></g></svg>